<svg width="40" height="40" viewBox="0 0 40 40" fill="none" xmlns="http://www.w3.org/2000/svg">
<path d="M17.5003 25.4167C17.1787 25.3922 16.8797 25.2426 16.667 25.0001L11.667 20.0001C11.5556 19.7669 11.5192 19.5049 11.5629 19.2501C11.6066 18.9952 11.7283 18.7604 11.911 18.5776C12.0938 18.3947 12.3288 18.2731 12.5835 18.2294C12.8383 18.1857 13.1004 18.2221 13.3336 18.3334L17.4503 22.4501L31.667 8.33346C31.9002 8.22206 32.1623 8.18571 32.417 8.22943C32.6718 8.27315 32.9068 8.39476 33.0895 8.57755C33.2723 8.76033 33.394 8.99528 33.4377 9.25005C33.4813 9.50483 33.445 9.76688 33.3337 10.0001L18.3337 25.0001C18.121 25.2426 17.8218 25.3922 17.5003 25.4167Z" fill="white"/>
<path d="M20.0002 34.9999C17.3194 34.9955 14.6885 34.2729 12.3817 32.907C10.0749 31.541 8.1763 29.5819 6.88351 27.2332C5.90081 25.4832 5.29346 23.5477 5.10018 21.5499C4.79515 18.62 5.35953 15.6652 6.72291 13.054C8.08631 10.4428 10.1884 8.29086 12.7668 6.86657C14.5169 5.88387 16.4524 5.27652 18.4502 5.08324C20.4404 4.86914 22.4534 5.06194 24.3669 5.64991C24.5375 5.68402 24.6994 5.75344 24.8417 5.85372C24.984 5.95399 25.1039 6.08291 25.1935 6.23221C25.2832 6.38149 25.3407 6.54787 25.3624 6.72067C25.3839 6.89346 25.3692 7.06886 25.319 7.23562C25.2689 7.40239 25.1844 7.55684 25.071 7.68906C24.9577 7.82129 24.818 7.92839 24.661 8.00347C24.5039 8.07857 24.3327 8.12001 24.1587 8.12512C23.9847 8.13026 23.8114 8.09896 23.6502 8.03324C22.0312 7.54644 20.3314 7.38777 18.6502 7.56657C16.9885 7.73672 15.3784 8.24127 13.9168 9.04991C12.5087 9.82674 11.2637 10.868 10.2502 12.1166C9.20661 13.3885 8.42733 14.8559 7.95798 16.4328C7.48865 18.0097 7.33866 19.6644 7.51685 21.2999C7.687 22.9615 8.19156 24.5717 9.00018 26.0332C9.77701 27.4414 10.8183 28.6864 12.0668 29.6999C13.3388 30.7435 14.8061 31.5227 16.383 31.992C17.9599 32.4614 19.6145 32.6114 21.2502 32.4332C22.9119 32.263 24.5219 31.7585 25.9835 30.9499C27.3917 30.173 28.6365 29.1319 29.6502 27.8832C30.6937 26.6114 31.473 25.1439 31.9424 23.567C32.4117 21.9902 32.5617 20.3355 32.3835 18.6999C32.367 18.528 32.3847 18.3547 32.4352 18.1897C32.4859 18.0247 32.5684 17.8712 32.6784 17.7382C32.7882 17.605 32.9232 17.4949 33.0757 17.414C33.2282 17.333 33.395 17.283 33.5669 17.2665C33.7387 17.2502 33.912 17.2677 34.077 17.3184C34.242 17.3689 34.3955 17.4515 34.5285 17.5614C34.6617 17.6712 34.7719 17.8064 34.8527 17.9587C34.9337 18.1112 34.9837 18.278 35.0002 18.4499C35.3037 21.3815 34.7369 24.3375 33.3704 26.949C32.0039 29.5604 29.8984 31.7114 27.3169 33.1332C25.5482 34.1562 23.5827 34.7924 21.5502 34.9999C21.0335 34.9999 20.5002 34.9999 20.0002 34.9999Z" fill="white"/>
</svg>
