<svg width="27" height="27" viewBox="0 0 27 27" fill="none" xmlns="http://www.w3.org/2000/svg">
<path d="M19.5449 10.0502C19.5916 10.0992 19.6283 10.1569 19.6527 10.2201C19.6772 10.2832 19.689 10.3506 19.6874 10.4183C19.6858 10.486 19.6709 10.5527 19.6435 10.6146C19.6162 10.6766 19.5769 10.7325 19.5279 10.7792L11.9655 17.998C11.8696 18.0895 11.7421 18.1406 11.6095 18.1406C11.4769 18.1406 11.3494 18.0895 11.2535 17.998L7.47213 14.3886C7.37382 14.2941 7.31699 14.1644 7.31408 14.028C7.31116 13.8917 7.3624 13.7597 7.45658 13.661C7.55076 13.5623 7.6802 13.505 7.81656 13.5015C7.95292 13.4981 8.08509 13.5488 8.18413 13.6426L11.6095 16.9122L18.8159 10.0333C18.8649 9.98649 18.9226 9.94984 18.9857 9.92539C19.0489 9.90093 19.1162 9.88916 19.1839 9.89074C19.2516 9.89231 19.3183 9.90721 19.3803 9.93458C19.4422 9.96195 19.4981 10.0013 19.5449 10.0502ZM26.3906 13.5C26.3906 16.0495 25.6346 18.5418 24.2182 20.6616C22.8017 22.7815 20.7885 24.4337 18.433 25.4094C16.0776 26.385 13.4857 26.6403 10.9852 26.1429C8.48463 25.6455 6.18774 24.4178 4.38496 22.615C2.58217 20.8123 1.35446 18.5154 0.857071 16.0148C0.359683 13.5143 0.61496 10.9224 1.59062 8.56697C2.56628 6.21152 4.21851 4.19828 6.33836 2.78184C8.45821 1.3654 10.9505 0.609375 13.5 0.609375C16.9176 0.61323 20.1942 1.97258 22.6108 4.38921C25.0274 6.80584 26.3868 10.0824 26.3906 13.5ZM25.3594 13.5C25.3594 11.1544 24.6638 8.86155 23.3607 6.91128C22.0576 4.96102 20.2054 3.44097 18.0384 2.54337C15.8714 1.64576 13.4868 1.4109 11.1864 1.8685C8.88586 2.3261 6.77272 3.45559 5.11416 5.11416C3.4556 6.77272 2.3261 8.88586 1.86851 11.1864C1.41091 13.4868 1.64576 15.8714 2.54337 18.0384C3.44098 20.2054 4.96103 22.0576 6.91129 23.3607C8.86155 24.6638 11.1544 25.3594 13.5 25.3594C16.6442 25.3558 19.6586 24.1052 21.8819 21.8819C24.1052 19.6586 25.3558 16.6442 25.3594 13.5Z" fill="white"/>
</svg>
