<svg width="26" height="25" viewBox="0 0 26 25" fill="none" xmlns="http://www.w3.org/2000/svg">
<path d="M17.875 22.6562H8.125V23.4375H17.875V22.6562Z" fill="white"/>
<path d="M17.875 1.5625H8.125V2.34375H17.875V1.5625Z" fill="white"/>
<path d="M10.5625 3.90625H7.3125V4.6875H10.5625V3.90625Z" fill="white"/>
<path d="M10.5625 7.03125H7.3125V7.8125H10.5625V7.03125Z" fill="white"/>
<path d="M18.6875 9.375H10.5625V10.1562H18.6875V9.375Z" fill="white"/>
<path d="M9.75 9.375H7.3125V10.1562H9.75V9.375Z" fill="white"/>
<path d="M18.6875 11.7188H10.5625V12.5H18.6875V11.7188Z" fill="white"/>
<path d="M9.75 11.7188H7.3125V12.5H9.75V11.7188Z" fill="white"/>
<path d="M18.6875 14.0625H10.5625V14.8438H18.6875V14.0625Z" fill="white"/>
<path d="M9.75 14.0625H7.3125V14.8438H9.75V14.0625Z" fill="white"/>
<path d="M18.6875 16.4062H10.5625V17.1875H18.6875V16.4062Z" fill="white"/>
<path d="M9.75 16.4062H7.3125V17.1875H9.75V16.4062Z" fill="white"/>
<path d="M18.6875 18.75H10.5625V19.5312H18.6875V18.75Z" fill="white"/>
<path d="M9.75 18.75H7.3125V19.5312H9.75V18.75Z" fill="white"/>
<path d="M20.3125 4.6875V20.3125H21.125V4.6875H20.3125Z" fill="white"/>
<path d="M17.875 1.5625V2.34375H19.5C19.7155 2.34375 19.9222 2.42606 20.0745 2.57257C20.2269 2.71909 20.3125 2.9178 20.3125 3.125V4.6875H21.125V3.125C21.125 2.7106 20.9538 2.31317 20.649 2.02015C20.3443 1.72712 19.931 1.5625 19.5 1.5625H17.875Z" fill="white"/>
<path d="M4.875 4.6875L4.875 20.3125H5.6875L5.6875 4.6875H4.875Z" fill="white"/>
<path d="M8.125 1.5625V2.34375H6.5C6.28451 2.34375 6.07785 2.42606 5.92548 2.57257C5.7731 2.71909 5.6875 2.9178 5.6875 3.125V4.6875H4.875V3.125C4.875 2.7106 5.0462 2.31317 5.35095 2.02015C5.6557 1.72712 6.06902 1.5625 6.5 1.5625H8.125Z" fill="white"/>
<path d="M17.875 23.4375V22.6562H19.5C19.7155 22.6562 19.9222 22.5739 20.0745 22.4274C20.2269 22.2809 20.3125 22.0822 20.3125 21.875V20.3125H21.125V21.875C21.125 22.2894 20.9538 22.6868 20.649 22.9799C20.3443 23.2729 19.931 23.4375 19.5 23.4375H17.875Z" fill="white"/>
<path d="M8.125 23.4375V22.6562H6.5C6.28451 22.6562 6.07785 22.5739 5.92548 22.4274C5.7731 22.2809 5.6875 22.0822 5.6875 21.875V20.3125H4.875V21.875C4.875 22.2894 5.0462 22.6868 5.35095 22.9799C5.6557 23.2729 6.06902 23.4375 6.5 23.4375H8.125Z" fill="white"/>
<path d="M8.125 3.90625H7.3125V7.8125H8.125V3.90625Z" fill="white"/>
<path d="M10.5625 3.90625H9.75V7.8125H10.5625V3.90625Z" fill="white"/>
</svg>
