<svg width="40" height="40" viewBox="0 0 40 40" fill="none" xmlns="http://www.w3.org/2000/svg">
<path d="M27.5 36.25H12.5V37.5H27.5V36.25Z" fill="white"/>
<path d="M27.5 2.5H12.5V3.75H27.5V2.5Z" fill="white"/>
<path d="M16.25 6.25H11.25V7.5H16.25V6.25Z" fill="white"/>
<path d="M16.25 11.25H11.25V12.5H16.25V11.25Z" fill="white"/>
<path d="M28.75 15H16.25V16.25H28.75V15Z" fill="white"/>
<path d="M15 15H11.25V16.25H15V15Z" fill="white"/>
<path d="M28.75 18.75H16.25V20H28.75V18.75Z" fill="white"/>
<path d="M15 18.75H11.25V20H15V18.75Z" fill="white"/>
<path d="M28.75 22.5H16.25V23.75H28.75V22.5Z" fill="white"/>
<path d="M15 22.5H11.25V23.75H15V22.5Z" fill="white"/>
<path d="M28.75 26.25H16.25V27.5H28.75V26.25Z" fill="white"/>
<path d="M15 26.25H11.25V27.5H15V26.25Z" fill="white"/>
<path d="M28.75 30H16.25V31.25H28.75V30Z" fill="white"/>
<path d="M15 30H11.25V31.25H15V30Z" fill="white"/>
<path d="M31.25 7.5V32.5H32.5V7.5H31.25Z" fill="white"/>
<path d="M27.5 2.5V3.75H30C30.3315 3.75 30.6495 3.8817 30.8839 4.11612C31.1183 4.35054 31.25 4.66848 31.25 5V7.5H32.5V5C32.5 4.33696 32.2366 3.70107 31.7678 3.23223C31.2989 2.76339 30.663 2.5 30 2.5H27.5Z" fill="white"/>
<path d="M7.5 7.5L7.5 32.5H8.75L8.75 7.5H7.5Z" fill="white"/>
<path d="M12.5 2.5V3.75H10C9.66848 3.75 9.35054 3.8817 9.11612 4.11612C8.8817 4.35054 8.75 4.66848 8.75 5V7.5H7.5V5C7.5 4.33696 7.76339 3.70107 8.23223 3.23223C8.70107 2.76339 9.33696 2.5 10 2.5H12.5Z" fill="white"/>
<path d="M27.5 37.5V36.25H30C30.3315 36.25 30.6495 36.1183 30.8839 35.8839C31.1183 35.6495 31.25 35.3315 31.25 35V32.5H32.5V35C32.5 35.663 32.2366 36.2989 31.7678 36.7678C31.2989 37.2366 30.663 37.5 30 37.5H27.5Z" fill="white"/>
<path d="M12.5 37.5V36.25H10C9.66848 36.25 9.35054 36.1183 9.11612 35.8839C8.8817 35.6495 8.75 35.3315 8.75 35V32.5H7.5V35C7.5 35.663 7.76339 36.2989 8.23223 36.7678C8.70107 37.2366 9.33696 37.5 10 37.5H12.5Z" fill="white"/>
<path d="M12.5 6.25H11.25V12.5H12.5V6.25Z" fill="white"/>
<path d="M16.25 6.25H15V12.5H16.25V6.25Z" fill="white"/>
</svg>
