<svg width="40" height="40" viewBox="0 0 40 40" fill="none" xmlns="http://www.w3.org/2000/svg">
<g clip-path="url(#clip0_789_8382)">
<path d="M18.3098 37.5973L15.8886 26.6998H6.61105L4.1898 37.5973L3.31105 37.4023L4.0823 33.9323C3.59855 33.6236 3.2998 33.0923 3.2998 32.4998V18.1248C3.2998 15.0136 4.5698 13.2998 6.8748 13.2998H15.6248C17.8636 13.2998 19.1998 15.1036 19.1998 18.1248V23.2998H25.7998V15.4498H24.9998C23.4023 15.4498 22.0511 14.0986 22.0511 12.4998V7.5023H22.9523V12.4998C22.9523 13.6111 23.8898 14.5498 25.0011 14.5498H25.8011V7.4998H26.7023V14.5498H27.4998C28.6111 14.5498 29.5498 13.6111 29.5498 12.4998V7.5023H30.4511V12.4998C30.4511 14.0986 29.0998 15.4498 27.5011 15.4498H26.7011V37.4998H25.7998V26.6998H16.8111L19.1898 37.4023L18.3098 37.5973ZM6.8748 14.1998C5.0998 14.1998 4.1998 15.5211 4.1998 18.1248V32.4998C4.1998 32.6436 4.2398 32.7836 4.3098 32.9036L5.7998 26.2011V17.4998H6.6998V25.7998H15.7998V17.4998H16.6998V25.7998H25.7998V24.1998H18.7498C18.5011 24.1998 18.2998 23.9986 18.2998 23.7498V18.1248C18.2998 16.6586 17.9523 14.1998 15.6248 14.1998H14.1761C14.1786 14.2711 14.1811 14.3423 14.1848 14.4136C14.2236 15.4273 14.2636 16.4736 13.5648 17.1998C13.0798 17.7048 12.3223 17.9498 11.2486 17.9498C10.1773 17.9498 9.4173 17.7036 8.92605 17.1961C8.2148 16.4611 8.24855 15.3961 8.28105 14.3661C8.2823 14.3111 8.2848 14.2548 8.28605 14.1998H6.8748ZM9.18855 14.1998C9.18605 14.2648 9.1848 14.3298 9.18231 14.3948C9.15355 15.2761 9.1273 16.1086 9.57355 16.5698C9.8823 16.8886 10.4461 17.0498 11.2498 17.0498C12.0536 17.0498 12.6148 16.8911 12.9173 16.5761C13.3498 16.1261 13.3186 15.3111 13.2848 14.4473C13.2823 14.3648 13.2786 14.2823 13.2761 14.1986L9.18855 14.1998ZM11.2498 11.6998C7.3998 11.6998 7.0798 8.49106 7.0523 6.69981H4.9998V5.7998H7.0523C7.0823 3.33355 7.46105 2.0498 11.2498 2.0498C13.2136 2.0498 14.3023 2.3823 14.8911 3.16105C15.3873 3.81855 15.4436 4.70105 15.4498 5.7998H17.4998V6.69981H15.4473C15.4373 7.54855 15.3711 8.6448 14.9398 9.59105C14.3036 10.9898 13.0623 11.6998 11.2498 11.6998ZM7.95355 6.69981C7.9973 8.75981 8.41105 10.7998 11.2498 10.7998C12.6986 10.7998 13.6373 10.2823 14.1211 9.21855C14.4798 8.4298 14.5373 7.48481 14.5473 6.69981C14.5473 6.6998 7.95355 6.69981 7.95355 6.69981ZM7.95105 5.7998H14.5486C14.5436 4.83855 14.4998 4.13855 14.1711 3.70355C13.7786 3.1823 12.8773 2.9498 11.2498 2.9498C8.15855 2.9498 7.96355 3.67855 7.95105 5.7998Z" fill="white"/>
</g>
<defs>
<clipPath id="clip0_789_8382">
<rect width="40" height="40" fill="white"/>
</clipPath>
</defs>
</svg>
