<svg width="29" height="29" viewBox="0 0 29 29" fill="none" xmlns="http://www.w3.org/2000/svg">
<g clip-path="url(#clip0_789_8255)">
<path d="M13.2748 27.2583L11.5194 19.3576H4.79323L3.03783 27.2583L2.40073 27.1169L2.95989 24.6011C2.60917 24.3773 2.39258 23.9921 2.39258 23.5626V13.1407C2.39258 10.885 3.31333 9.64258 4.98445 9.64258H11.3282C12.9513 9.64258 13.9201 10.9503 13.9201 13.1407V16.8926H18.7051V11.2013H18.1251C16.9669 11.2013 15.9872 10.2217 15.9872 9.06258V5.43939H16.6406V9.06258C16.6406 9.86823 17.3203 10.5488 18.126 10.5488H18.706V5.43758H19.3594V10.5488H19.9376C20.7432 10.5488 21.4238 9.86823 21.4238 9.06258V5.43939H22.0772V9.06258C22.0772 10.2217 21.0976 11.2013 19.9385 11.2013H19.3585V27.1876H18.7051V19.3576H12.1882L13.9128 27.1169L13.2748 27.2583ZM4.98445 10.2951C3.69758 10.2951 3.04508 11.253 3.04508 13.1407V23.5626C3.04508 23.6668 3.07408 23.7683 3.12483 23.8553L4.20508 18.996V12.6876H4.85758V18.7051H11.4551V12.6876H12.1076V18.7051H18.7051V17.5451H13.5938C13.4135 17.5451 13.2676 17.3992 13.2676 17.2188V13.1407C13.2676 12.0777 13.0156 10.2951 11.3282 10.2951H10.2779C10.2797 10.3467 10.2815 10.3984 10.2842 10.45C10.3123 11.185 10.3413 11.9435 9.8347 12.4701C9.48308 12.8362 8.93389 13.0138 8.15542 13.0138C7.37876 13.0138 6.82776 12.8353 6.47161 12.4674C5.95595 11.9345 5.98042 11.1624 6.00398 10.4156C6.00489 10.3757 6.0067 10.335 6.00761 10.2951H4.98445ZM6.66192 10.2951C6.66011 10.3422 6.6592 10.3893 6.65739 10.4365C6.63655 11.0754 6.61752 11.6789 6.94105 12.0133C7.16489 12.2444 7.57361 12.3613 8.15633 12.3613C8.73905 12.3613 9.14595 12.2462 9.36526 12.0179C9.67883 11.6916 9.65617 11.1007 9.6317 10.4745C9.62989 10.4147 9.62717 10.3549 9.62536 10.2942L6.66192 10.2951ZM8.15633 8.48258C5.36508 8.48258 5.13308 6.15623 5.11314 4.85758H3.62508V4.20508H5.11314C5.13489 2.41705 5.40948 1.48633 8.15633 1.48633C9.58005 1.48633 10.3694 1.72739 10.7962 2.29198C11.156 2.76867 11.1968 3.40848 11.2013 4.20508H12.6876V4.85758H11.1995C11.1923 5.47292 11.1442 6.2677 10.8316 6.95373C10.3703 7.96783 9.47039 8.48258 8.15633 8.48258ZM5.76655 4.85758C5.79827 6.35108 6.09823 7.83008 8.15633 7.83008C9.20667 7.83008 9.88726 7.45489 10.238 6.68367C10.4981 6.11183 10.5398 5.4267 10.547 4.85758H5.76655ZM5.76473 4.20508H10.5479C10.5443 3.50817 10.5126 3.00067 10.2742 2.6853C9.98967 2.30739 9.33627 2.13883 8.15633 2.13883C5.91517 2.13883 5.7738 2.66717 5.76473 4.20508Z" fill="white"/>
</g>
<defs>
<clipPath id="clip0_789_8255">
<rect width="29" height="29" fill="white"/>
</clipPath>
</defs>
</svg>
