<svg width="29" height="29" viewBox="0 0 29 29" fill="none" xmlns="http://www.w3.org/2000/svg">
<g clip-path="url(#clip0_735_1682)">
<path d="M19.8167 10.6333H21.75C22.0178 10.6333 22.2333 10.8489 22.2333 11.1167C22.2333 11.3844 22.0178 11.6 21.75 11.6H19.8167C19.5489 11.6 19.3333 11.3844 19.3333 11.1167C19.3333 10.8489 19.5489 10.6333 19.8167 10.6333ZM24.65 10.6333H26.5833C26.8511 10.6333 27.0667 10.8489 27.0667 11.1167C27.0667 11.3844 26.8511 11.6 26.5833 11.6H24.65C24.3822 11.6 24.1667 11.3844 24.1667 11.1167C24.1667 10.8489 24.3822 10.6333 24.65 10.6333ZM8.21667 22.2333H20.7833C21.0511 22.2333 21.2667 22.4489 21.2667 22.7167C21.2667 22.9844 21.0511 23.2 20.7833 23.2H8.21667C7.9489 23.2 7.73333 22.9844 7.73333 22.7167C7.73333 22.4489 7.9489 22.2333 8.21667 22.2333ZM8.21667 19.3333H20.7833C21.0511 19.3333 21.2667 19.5489 21.2667 19.8167C21.2667 20.0844 21.0511 20.3 20.7833 20.3H8.21667C7.9489 20.3 7.73333 20.0844 7.73333 19.8167C7.73333 19.5489 7.9489 19.3333 8.21667 19.3333ZM3.38333 16.4333H25.6167C25.8844 16.4333 26.1 16.6489 26.1 16.9167C26.1 17.1844 25.8844 17.4 25.6167 17.4H3.38333C3.11557 17.4 2.9 17.1844 2.9 16.9167C2.9 16.6489 3.11557 16.4333 3.38333 16.4333ZM1.45 8.69999C0.6554 8.69999 0 9.35539 0 10.15V20.7833C0 21.5779 0.6554 22.2333 1.45 22.2333H4.83333V26.5833C4.83333 27.3779 5.48873 28.0333 6.28333 28.0333H22.7167C23.5113 28.0333 24.1667 27.3779 24.1667 26.5833V22.2333H27.55C28.3446 22.2333 29 21.5779 29 20.7833V10.15C29 9.35539 28.3446 8.69999 27.55 8.69999H1.45ZM1.45 9.66666H27.55C27.8265 9.66666 28.0333 9.87353 28.0333 10.15V20.7833C28.0333 21.0598 27.8265 21.2667 27.55 21.2667H24.1667V18.85C24.1667 18.2081 23.2 18.2081 23.2 18.85V21.6727C23.1903 21.7249 23.1903 21.7771 23.2 21.8293V26.5833C23.2 26.8598 22.9931 27.0667 22.7167 27.0667H6.28333C6.00687 27.0667 5.8 26.8598 5.8 26.5833V21.8273C5.80967 21.7751 5.80967 21.7229 5.8 21.6707V18.85C5.80387 18.5774 5.58927 18.3628 5.31667 18.3667C5.04987 18.3705 4.82947 18.5832 4.83333 18.85V21.2667H1.45C1.17353 21.2667 0.966667 21.0598 0.966667 20.7833V10.15C0.966667 9.87353 1.17353 9.66666 1.45 9.66666ZM6.28333 0.96666C5.48873 0.96666 4.83333 1.62206 4.83333 2.41666V6.28333C4.83333 6.93389 5.8 6.91746 5.8 6.28333V2.41666C5.8 2.14019 6.00687 1.93333 6.28333 1.93333H22.7167C22.9931 1.93333 23.2 2.14019 23.2 2.41666V6.28333C23.2 6.93099 24.1667 6.90973 24.1667 6.28333V2.41666C24.1667 1.62206 23.5113 0.96666 22.7167 0.96666H6.28333Z" fill="white"/>
</g>
<defs>
<clipPath id="clip0_735_1682">
<rect width="29" height="29" fill="white"/>
</clipPath>
</defs>
</svg>
